<svg id="Capa_1" enable-background="new 0 0 512 512" height="512" viewBox="0 0 512 512" width="512" xmlns="http://www.w3.org/2000/svg"><g><path d="m511.999 0h-15c-67.088 0-132.177 13.143-193.459 39.063-59.184 25.033-112.334 60.866-157.973 106.505-45.638 45.638-81.471 98.788-106.505 157.972-25.92 61.283-39.062 126.372-39.062 193.46v15h379.135v-15c0-64.991 52.874-117.865 117.865-117.865h15zm-30 349.89c-69.585 7.04-125.069 62.524-132.109 132.11h-28.298c7.218-85.134 75.273-153.19 160.407-160.409zm0-58.395c-101.687 7.352-183.153 88.818-190.504 190.505h-28.252c3.574-56.924 27.433-109.948 68.122-150.636 40.687-40.687 93.711-64.547 150.634-68.121zm.001-58.307c-64.942 3.611-125.492 30.607-171.848 76.963-46.357 46.357-73.353 106.907-76.963 171.849h-28.241c3.637-72.476 33.588-140.098 85.271-191.781s119.305-81.633 191.781-85.271zm0-58.269c-80.492 3.662-155.644 36.736-212.994 94.086-57.35 57.351-90.425 132.502-94.087 212.994h-28.206c3.68-88.024 39.684-170.252 102.36-232.927 62.675-62.675 144.903-98.679 232.926-102.36v28.207zm0-58.25c-46.081 1.771-90.807 11.713-133.16 29.626-45.325 19.171-86.029 46.613-120.98 81.564-34.951 34.95-62.394 75.654-81.564 120.98-17.914 42.353-27.856 87.079-29.626 133.16h-28.21c1.783-49.897 12.473-98.31 31.85-144.123 20.59-48.679 50.068-92.401 87.617-129.95 37.55-37.549 81.272-67.028 129.95-87.618 45.813-19.376 94.227-30.066 144.123-31.849zm0-58.224c-53.935 1.796-106.281 13.285-155.81 34.234-52.255 22.102-99.182 53.74-139.477 94.034-40.295 40.295-71.933 87.221-94.034 139.477-20.948 49.528-32.437 101.874-34.233 155.81h-28.213c1.805-57.754 14.047-113.783 36.46-166.773 23.52-55.608 57.194-105.552 100.088-148.446 42.894-42.893 92.838-76.567 148.446-100.088 52.99-22.413 109.019-34.655 166.773-36.459z"/></g></svg>